<svg width="28" height="28" viewBox="0 0 28 28" fill="none" xmlns="http://www.w3.org/2000/svg">
<path d="M6.125 13.125H23.625C23.8571 13.125 24.0796 13.2172 24.2437 13.3813C24.4078 13.5454 24.5 13.7679 24.5 14C24.5 14.2321 24.4078 14.4546 24.2437 14.6187C24.0796 14.7828 23.8571 14.875 23.625 14.875H6.125C5.89294 14.875 5.67038 14.7828 5.50628 14.6187C5.34219 14.4546 5.25 14.2321 5.25 14C5.25 13.7679 5.34219 13.5454 5.50628 13.3813C5.67038 13.2172 5.89294 13.125 6.125 13.125Z" fill="white"/>
<path d="M6.48686 14L13.7441 21.2555C13.9084 21.4198 14.0007 21.6426 14.0007 21.875C14.0007 22.1074 13.9084 22.3302 13.7441 22.4945C13.5798 22.6588 13.357 22.7511 13.1246 22.7511C12.8923 22.7511 12.6694 22.6588 12.5051 22.4945L4.63011 14.6195C4.54863 14.5382 4.48398 14.4417 4.43986 14.3354C4.39575 14.2291 4.37305 14.1151 4.37305 14C4.37305 13.8849 4.39575 13.771 4.43986 13.6646C4.48398 13.5583 4.54863 13.4618 4.63011 13.3805L12.5051 5.50551C12.6694 5.3412 12.8923 5.2489 13.1246 5.2489C13.357 5.2489 13.5798 5.3412 13.7441 5.50551C13.9084 5.66981 14.0007 5.89265 14.0007 6.12501C14.0007 6.35736 13.9084 6.58021 13.7441 6.74451L6.48686 14Z" fill="white"/>
</svg>
