<svg width="33" height="33" viewBox="0 0 33 33" fill="none" xmlns="http://www.w3.org/2000/svg">
<path d="M16.5 33C25.6127 33 33 25.6127 33 16.5C33 7.3873 25.6127 0 16.5 0C7.3873 0 0 7.3873 0 16.5C0 25.6127 7.3873 33 16.5 33Z" fill="#4793FF"/>
<path d="M16.5 0C25.5981 0 33 7.40186 33 16.5C33 25.5981 25.5981 33 16.5 33V0Z" fill="#5E69E2"/>
<path d="M16.4999 28.8578C23.3249 28.8578 28.8577 23.325 28.8577 16.5C28.8577 9.67498 23.3249 4.14221 16.4999 4.14221C9.67486 4.14221 4.14209 9.67498 4.14209 16.5C4.14209 23.325 9.67486 28.8578 16.4999 28.8578Z" fill="#2EBEEF"/>
<path d="M16.5 4.14221C23.3141 4.14221 28.8578 9.68589 28.8578 16.5C28.8578 23.3141 23.3141 28.8578 16.5 28.8578V4.14221Z" fill="#4793FF"/>
<path d="M15.6956 8.19709L10.5178 15.9637C10.3013 16.2884 10.3013 16.7115 10.5178 17.0363L15.6956 24.8029C16.0782 25.3769 16.9217 25.3769 17.3044 24.8029L22.4821 17.0363C22.6986 16.7115 22.6986 16.2884 22.4821 15.9637L17.3044 8.19709C16.9217 7.62307 16.0783 7.62307 15.6956 8.19709Z" fill="#76E5F6"/>
<path d="M16.5 17.7488V25.2334C16.8065 25.2334 17.1131 25.0899 17.3044 24.8029L22.4822 17.0363C22.5828 16.8853 22.6361 16.7131 22.6431 16.5393L16.6896 17.73C16.627 17.7425 16.5635 17.7488 16.5 17.7488Z" fill="#2EBEEF"/>
<path d="M16.4999 7.7666C16.1933 7.7666 15.8868 7.91007 15.6954 8.19708L10.5177 15.9637C10.4019 16.1375 10.3486 16.3393 10.3568 16.5393L16.3102 17.73C16.3728 17.7425 16.4364 17.7488 16.4999 17.7488V7.7666Z" fill="#C2F4FB"/>
</svg>
