<svg width="20" height="20" viewBox="0 0 20 20" fill="none" xmlns="http://www.w3.org/2000/svg">
<path d="M3.5181 16.4817C3.90466 16.8688 4.3639 17.1757 4.86945 17.3848C5.37499 17.5939 5.91686 17.701 6.46393 17.7C7.01112 17.701 7.55311 17.5938 8.05879 17.3847C8.56446 17.1757 9.02386 16.8688 9.4106 16.4817L11.7673 14.1242L10.5889 12.9458L8.23226 15.3033C7.76266 15.7708 7.12699 16.0333 6.46435 16.0333C5.80171 16.0333 5.16604 15.7708 4.69643 15.3033C4.22852 14.8339 3.96577 14.1982 3.96577 13.5354C3.96577 12.8726 4.22852 12.2369 4.69643 11.7675L7.05393 9.41083L5.8756 8.2325L3.5181 10.5892C2.73794 11.3712 2.2998 12.4308 2.2998 13.5354C2.2998 14.6401 2.73794 15.6996 3.5181 16.4817V16.4817ZM16.4814 9.41083C17.2612 8.62857 17.699 7.5691 17.699 6.46458C17.699 5.36007 17.2612 4.3006 16.4814 3.51833C15.6994 2.73817 14.6398 2.30004 13.5352 2.30004C12.4305 2.30004 11.371 2.73817 10.5889 3.51833L8.23226 5.87583L9.4106 7.05417L11.7673 4.69667C12.2369 4.22916 12.8725 3.96669 13.5352 3.96669C14.1978 3.96669 14.8335 4.22916 15.3031 4.69667C15.771 5.16606 16.0338 5.80181 16.0338 6.46458C16.0338 7.12736 15.771 7.76311 15.3031 8.2325L12.9456 10.5892L14.1239 11.7675L16.4814 9.41083Z" fill="#D582FC"/>
<path d="M7.05319 14.125L5.87402 12.9467L12.9465 5.875L14.1249 7.05417L7.05319 14.125Z" fill="#D582FC"/>
</svg>
