<svg width="26" height="26" viewBox="0 0 26 26" fill="none" xmlns="http://www.w3.org/2000/svg">
<path d="M25.2207 15.8491L22.8309 13.9804C22.905 13.3281 22.905 12.6696 22.8309 12.0174L25.2229 10.1476C25.6711 9.78656 25.7909 9.15353 25.5056 8.65364L23.0194 4.35609C22.733 3.85305 22.1231 3.63337 21.5818 3.83827L18.7651 4.97145C18.2359 4.58745 17.6689 4.25823 17.073 3.98889L16.6407 0.996718C16.5628 0.422283 16.0699 -0.00468384 15.4902 3.87955e-05H10.5069C9.93204 -0.00341432 9.44317 0.418779 9.36293 0.988035L8.92962 3.98884C8.33553 4.26077 7.76947 4.59024 7.23962 4.97252L4.41534 3.83716C3.8796 3.62596 3.27027 3.843 2.98859 4.34522L0.500167 8.65039C0.207211 9.15109 0.327816 9.79108 0.782916 10.1508L3.17272 12.0196C3.09792 12.6717 3.09792 13.3304 3.17272 13.9825L0.780732 15.8513C0.331726 16.2118 0.211375 16.8452 0.496917 17.3452L2.98209 21.6439C3.26809 22.1473 3.87833 22.3671 4.41965 22.1617L7.23632 21.0285C7.76607 21.4127 8.3334 21.7423 8.92957 22.0122L9.36288 25.0022C9.43915 25.5751 9.92894 26.0023 10.5069 25.9999H15.4902C16.0661 26.0046 16.5566 25.5822 16.6374 25.0119L17.0707 22.0111C17.6648 21.7391 18.2308 21.4096 18.7607 21.0275L21.5882 22.1639C22.124 22.3746 22.733 22.1577 23.015 21.6558L25.511 17.3333C25.7904 16.8342 25.6676 16.2062 25.2207 15.8491ZM12.9986 18.4166C10.007 18.4166 7.58189 15.9915 7.58189 12.9999C7.58189 10.0084 10.007 7.58327 12.9986 7.58327C15.9901 7.58327 18.4152 10.0084 18.4152 12.9999C18.4116 15.99 15.9886 18.413 12.9986 18.4166Z" fill="white"/>
</svg>
